<svg height="493.44404pt" viewBox="0 0 493.44404 493.44404" width="493.44404pt" xmlns="http://www.w3.org/2000/svg"><path d="m477.039062 27.765625-11.359374-11.363281c-21.871094-21.871094-57.328126-21.871094-79.199219 0l-167.761719 167.761718c-3.535156-1.152343-7.085938-2.199218-10.679688-3.039062v-31.679688c0-4.417968-3.582031-8-8-8h-48.039062c-4.417969 0-8 3.582032-8 8v31.726563c-14.757812 3.46875-28.851562 9.308594-41.734375 17.296875l-22.449219-22.402344c-3.125-3.121094-8.1875-3.121094-11.3125 0l-33.917968 33.921875c-3.125 3.125-3.125 8.1875 0 11.3125l22.4375 22.445313c-7.980469 12.875-13.824219 26.957031-17.296876 41.699218h-31.726562c-4.417969 0-8 3.582032-8 8v48c0 4.417969 3.582031 8 8 8h31.726562c3.46875 14.753907 9.3125 28.851563 17.296876 41.734376l-22.398438 22.449218c-3.125 3.125-3.125 8.1875 0 11.3125l33.917969 33.917969c3.175781 3 8.140625 3 11.3125 0l22.449219-22.398437c12.875 7.96875 26.957031 13.792968 41.695312 17.253906v31.730468c0 4.417969 3.582031 8 8 8h48c4.417969 0 8-3.582031 8-8v-31.730468c14.757812-3.46875 28.851562-9.308594 41.734375-17.292969l22.449219 22.4375c3.125 3.125 8.1875 3.125 11.3125 0l33.917968-33.917969c3.125-3.125 3.125-8.1875 0-11.3125l-22.398437-22.449218c7.972656-12.886719 13.800781-26.980469 17.257813-41.734376h31.726562c4.417969 0 8-3.582031 8-8v-48c0-4.417968-3.582031-8-8-8h-31.71875c-.800781-3.59375-1.890625-7.152343-3.042969-10.679687v-.042969l167.800781-167.757812c21.871094-21.871094 21.871094-57.332032 0-79.199219zm-101.839843 22.636719 67.839843 67.839844-11.3125 11.3125-67.839843-67.839844zm-133.4375 290.480468c.117187-.019531.230469-.074218.316406-.160156.496094-.179687.976563-.390625 1.441406-.636718.566407-.355469 1.101563-.757813 1.601563-1.203126l18.800781-18.796874c-1.417969 47.902343-40.90625 85.867187-88.828125 85.394531-47.925781-.472657-86.660156-39.203125-87.132812-87.128907-.46875-47.921874 37.492187-87.414062 85.398437-88.828124l-18.800781 18.800781c-.441406.5-.84375 1.035156-1.199219 1.601562-.292969.46875-.507813.980469-.640625 1.519531-.078125.078126-.160156.160157-.160156.238282l-33.917969 113.199218c-.863281 2.808594-.09375 5.859376 2 7.921876 1.511719 1.492187 3.554687 2.324218 5.679687 2.320312.757813.011719 1.515626-.097656 2.238282-.320312l112.242187-33.679688zm110.796875-267.839843 11.296875 11.296875-180.960938 180.960937-11.277343-11.28125zm-204.160156 248.320312 23.679687 23.679688-33.839844 10.160156zm41.121093 18.480469-35.917969-35.917969 10.398438-34.800781 47.121094 47.117188 13.199218 13.203124zm27.28125-40.609375-22.5625-22.589844 180.960938-181.023437 22.625 22.621094zm119.199219 2.210937v32h-30.238281c-3.871094 0-7.183594 2.769532-7.875 6.574219-3.144531 17.109375-9.875 33.359375-19.75 47.679688-2.195313 3.179687-1.804688 7.46875.925781 10.199219l21.386719 21.386718-22.609375 22.605469-21.382813-21.382813c-2.730469-2.730468-7.023437-3.121093-10.199219-.929687-14.324218 9.878906-30.574218 16.609375-47.683593 19.753906-3.804688.6875-6.574219 4.003907-6.574219 7.871094v30.242187h-32v-30.242187c0-3.867187-2.769531-7.183594-6.574219-7.871094-17.109375-3.144531-33.359375-9.875-47.683593-19.753906-3.175782-2.191406-7.46875-1.800781-10.199219.929687l-21.382813 21.382813-22.609375-22.605469 21.386719-21.386718c2.730469-2.730469 3.121094-7.019532.925781-10.199219-9.875-14.320313-16.605469-30.570313-19.75-47.679688-.691406-3.804687-4.003906-6.574219-7.875-6.574219h-30.238281v-32h30.238281c3.871094 0 7.183594-2.769531 7.875-6.578124 3.144531-17.109376 9.875-33.359376 19.75-47.679688 2.195313-3.179688 1.804688-7.46875-.925781-10.199219l-21.386719-21.382812 22.609375-22.609375 21.382813 21.382812c2.730469 2.730469 7.023437 3.121094 10.199219.929688 14.324218-9.875 30.574218-16.609375 47.683593-19.753906 3.804688-.6875 6.574219-4 6.574219-7.871094v-30.238282h32v30.238282c.003906 3.875 2.785156 7.195312 6.601562 7.871094 2.398438.425781 4.75 1.023437 7.117188 1.601562l-17.078125 17.085938c-4.191406-.550782-8.414063-.816407-12.640625-.796876-57.4375 0-104 46.5625-104 104s46.5625 104 104 104 104-46.5625 104-104c.019531-4.226562-.246094-8.449218-.800781-12.640624l17.082031-17.082032c.582031 2.402344 1.183594 4.746094 1.597656 7.121094.679688 3.820312 4 6.601562 7.882813 6.601562zm-96.558594 20.398438-11.296875-11.296875 180.992188-180.992187 11.296875 11.296874zm226.238282-226.238281-11.28125 11.3125-67.871094-67.875 6.242187-6.238281c.359375.832031.859375 1.597656 1.476563 2.261718l26.152344 26.5625c1.980468 2.140625 4.964843 3.039063 7.796874 2.339844 2.832032-.699219 5.058594-2.882812 5.8125-5.703125.75-2.816406-.085937-5.820313-2.191406-7.835937l-26.113281-26.585938c-.507813-.453125-1.074219-.839844-1.6875-1.144531l.0625-.046875c15.851563-10.507813 36.914063-8.363282 50.320313 5.121094l11.28125 11.269531c7.527343 7.488281 11.761718 17.664062 11.761718 28.28125 0 10.617187-4.234375 20.792969-11.761718 28.28125zm0 0"/><path d="m446.039062 64.203125c-2.929687-3.175781-7.855468-3.449219-11.121093-.617187-3.265625 2.832031-3.6875 7.746093-.957031 11.097656l3.070312 3.550781c2.914062 3.265625 7.90625 3.585937 11.210938.722656 3.304687-2.867187 3.695312-7.855469.878906-11.199219zm0 0"/></svg>