<svg width="464" height="433" viewBox="0 0 464 433" fill="none" xmlns="http://www.w3.org/2000/svg">
<g clip-path="url(#clip0)">
<path d="M369.559 307.641C369.559 307.641 426.962 310.602 413.592 328.633C400.222 346.663 365.089 318.056 365.089 318.056L369.559 307.641Z" fill="#FFB8B8"/>
<path d="M263.775 135.902L275.46 138.817C275.46 138.817 282.275 159.219 287.144 177.678C292.012 196.137 301.749 251.514 301.749 251.514L377.235 304.301L368.232 324.397L267.67 284.851L245.276 197.109L263.775 135.902Z" fill="#575A89"/>
<path opacity="0.2" d="M274.769 172.117L270.414 263.11L279.501 290.163L252.882 270.686L274.769 172.117Z" fill="black"/>
<path d="M290.551 333.609C290.551 333.609 303.209 367.612 305.157 390.929C307.104 414.246 309.051 432.705 309.051 432.705H249.657L237.973 415.217V432.705H168.842C168.842 432.705 149.369 369.555 157.158 361.783C164.948 354.011 238.947 320.979 238.947 320.979L290.551 333.609Z" fill="#2F2E41"/>
<path d="M403.724 431.82H60.041V433H403.724V431.82Z" fill="#3F3D56"/>
<path d="M216.065 98.9842C236.5 98.9842 253.065 82.4554 253.065 62.066C253.065 41.6767 236.5 25.1479 216.065 25.1479C195.631 25.1479 179.066 41.6767 179.066 62.066C179.066 82.4554 195.631 98.9842 216.065 98.9842Z" fill="#FFB8B8"/>
<path d="M187.829 77.6105L184.908 120.358L221.907 169.906L240.407 123.272C240.407 123.272 223.855 112.586 233.592 90.2404L187.829 77.6105Z" fill="#FFB8B8"/>
<path d="M295.904 341.866C295.904 350.613 271.563 364.212 271.563 364.212V369.07L261.826 373.927L240.406 331.183L234.568 377.811C234.568 377.811 191.723 384.617 178.094 377.811C164.459 371.012 157.645 373.927 138.171 367.128C118.698 360.328 145.962 269.001 145.962 269.001L126.488 128.13L169.032 106.905L171.274 105.784L177.124 104.71L186.092 103.057L216.065 123.272L218.478 135.903L219.963 143.677L227.748 134.93L233.627 115.635L275.461 138.819L263.778 232.082C263.778 232.082 295.904 333.124 295.904 341.866Z" fill="#575A89"/>
<path d="M152.777 371.984C152.777 371.984 197.566 407.931 176.145 414.732C154.724 421.532 143.04 377.813 143.04 377.813L152.777 371.984Z" fill="#FFB8B8"/>
<path d="M136.224 130.073L126.487 128.13C126.487 128.13 111.882 135.902 110.909 151.447C109.935 166.991 97.2773 275.803 97.2773 275.803L138.172 385.586L171.276 372.956L139.145 269.974L163.487 180.593L136.224 130.073Z" fill="#575A89"/>
<path d="M220.347 159.721C222.308 159.721 223.897 158.136 223.897 156.18C223.897 154.224 222.308 152.639 220.347 152.639C218.387 152.639 216.798 154.224 216.798 156.18C216.798 158.136 218.387 159.721 220.347 159.721Z" fill="#2F2E41"/>
<path d="M220.347 182.741C222.308 182.741 223.897 181.155 223.897 179.199C223.897 177.243 222.308 175.658 220.347 175.658C218.387 175.658 216.798 177.243 216.798 179.199C216.798 181.155 218.387 182.741 220.347 182.741Z" fill="#2F2E41"/>
<path d="M240.46 334.431C242.42 334.431 244.009 332.845 244.009 330.889C244.009 328.934 242.42 327.348 240.46 327.348C238.499 327.348 236.91 328.934 236.91 330.889C236.91 332.845 238.499 334.431 240.46 334.431Z" fill="#2F2E41"/>
<path d="M184.827 24.2451L177.987 21.5129C177.987 21.5129 192.288 5.80306 212.185 7.16916L206.589 1.02179C206.589 1.02179 220.269 -4.44245 232.704 9.90128C239.241 17.4414 246.805 26.3046 251.52 36.2887H258.845L255.788 43.0052L266.487 49.7217L255.505 48.5153C256.159 52.1933 256.26 55.9482 255.803 59.6558C255.332 63.3646 253.435 66.7456 250.513 69.0854C250.513 69.0854 242.031 51.5665 242.031 48.8343V55.6647C242.031 55.6647 235.191 49.5174 235.191 45.4192L231.46 50.2004H206.589L210.32 44.0531L196.019 46.1022L201.615 38.5888L179.473 69.6144C179.473 69.6144 166.795 34.4906 184.827 24.2451Z" fill="#2F2E41"/>
<path d="M404.846 285.405C437.516 285.405 464 258.979 464 226.382C464 193.784 437.516 167.358 404.846 167.358C372.177 167.358 345.693 193.784 345.693 226.382C345.693 258.979 372.177 285.405 404.846 285.405Z" fill="#3F3D56"/>
<path opacity="0.1" d="M404.846 277.142C432.942 277.142 455.719 254.416 455.719 226.382C455.719 198.348 432.942 175.621 404.846 175.621C376.75 175.621 353.974 198.348 353.974 226.382C353.974 254.416 376.75 277.142 404.846 277.142Z" fill="black"/>
<path d="M402.409 256.335V248.947C398.666 248.874 394.794 247.557 392.535 245.728L394.084 240.827C396.768 242.834 400.023 243.936 403.377 243.972C407.958 243.972 411.056 240.973 411.056 236.804C411.056 232.781 408.539 230.294 403.764 228.099C397.181 225.173 393.116 221.808 393.116 215.445C393.116 209.373 396.923 204.765 402.86 203.668V196.28H406.861V203.375C409.845 203.416 412.755 204.304 415.251 205.935L413.637 210.763C411.243 209.128 408.407 208.26 405.506 208.276C400.537 208.276 398.666 211.641 398.666 214.567C398.666 218.37 401.054 220.272 406.668 222.906C413.315 225.978 416.67 229.782 416.67 236.292C416.67 242.071 413.121 247.484 406.474 248.727V256.335H402.409Z" fill="#6C63FF"/>
<path opacity="0.2" d="M147.887 297.992L171.546 371.731L152.616 295.001L147.887 297.992Z" fill="black"/>
<path d="M27.2659 153.935H12.2487C11.5942 153.934 10.9667 153.675 10.5039 153.213C10.0411 152.751 9.78073 152.125 9.78 151.472V129.932C9.78073 129.279 10.0411 128.653 10.5039 128.191C10.9667 127.73 11.5942 127.47 12.2487 127.469H27.2659C27.9204 127.47 28.5479 127.73 29.0107 128.191C29.4735 128.653 29.7338 129.279 29.7345 129.932V151.472C29.7338 152.125 29.4735 152.751 29.0107 153.213C28.5479 153.675 27.9204 153.934 27.2659 153.935ZM12.2487 128.65C11.9078 128.65 11.5811 128.785 11.3401 129.026C11.0991 129.266 10.9635 129.592 10.9631 129.932V151.472C10.9635 151.812 11.0991 152.138 11.3401 152.378C11.5811 152.619 11.9078 152.754 12.2487 152.755H27.2659C27.6067 152.754 27.9335 152.619 28.1745 152.378C28.4155 152.138 28.5511 151.812 28.5515 151.472V129.932C28.5511 129.592 28.4155 129.266 28.1745 129.026C27.9335 128.785 27.6067 128.65 27.2659 128.65H12.2487Z" fill="#3F3D56"/>
<path d="M54.6952 153.935H41.1337C40.2863 153.934 39.4738 153.598 38.8745 153C38.2753 152.402 37.9382 151.591 37.9372 150.746V107.246C37.9382 106.4 38.2753 105.589 38.8745 104.992C39.4738 104.394 40.2863 104.057 41.1337 104.056H54.6952C55.5427 104.057 56.3551 104.394 56.9544 104.992C57.5536 105.589 57.8907 106.4 57.8917 107.246V150.746C57.8907 151.591 57.5536 152.402 56.9544 153C56.3551 153.598 55.5427 153.934 54.6952 153.935ZM41.1337 105.237C40.5999 105.237 40.0881 105.449 39.7106 105.826C39.3332 106.202 39.1209 106.713 39.1203 107.246V150.746C39.1209 151.278 39.3332 151.789 39.7106 152.166C40.0881 152.542 40.5999 152.754 41.1337 152.755H54.6952C55.229 152.754 55.7408 152.542 56.1183 152.166C56.4958 151.789 56.7081 151.278 56.7087 150.746V107.246C56.7081 106.713 56.4958 106.202 56.1183 105.826C55.7408 105.449 55.229 105.237 54.6952 105.237L41.1337 105.237Z" fill="#3F3D56"/>
<path d="M82.3288 153.935H69.8146C68.8283 153.934 67.8827 153.543 67.1853 152.847C66.4879 152.151 66.0955 151.207 66.0944 150.223V86.2288C66.0955 85.2446 66.4879 84.3011 67.1853 83.6052C67.8827 82.9093 68.8283 82.5179 69.8146 82.5168H82.3288C83.3151 82.5179 84.2607 82.9093 84.9581 83.6052C85.6555 84.3011 86.0479 85.2446 86.049 86.2288V150.223C86.0479 151.207 85.6555 152.151 84.9581 152.847C84.2607 153.543 83.3151 153.934 82.3288 153.935ZM69.8146 83.6972C69.142 83.698 68.4971 83.9649 68.0214 84.4395C67.5458 84.9141 67.2783 85.5576 67.2775 86.2288V150.223C67.2783 150.894 67.5458 151.538 68.0214 152.012C68.4971 152.487 69.142 152.754 69.8146 152.755H82.3288C83.0014 152.754 83.6463 152.487 84.1219 152.012C84.5976 151.538 84.8651 150.894 84.8659 150.223V86.2288C84.8651 85.5576 84.5976 84.9141 84.1219 84.4395C83.6463 83.9649 83.0014 83.698 82.3288 83.6972H69.8146Z" fill="#3F3D56"/>
<path d="M25.3887 131.571H14.1259V149.833H25.3887V131.571Z" fill="#6C63FF"/>
<path d="M53.5459 108.393H42.2831V149.833H53.5459V108.393Z" fill="#6C63FF"/>
<path d="M81.703 86.853H70.4402V149.833H81.703V86.853Z" fill="#6C63FF"/>
<path d="M427.681 86.0582H349.007C348.929 86.0582 348.852 86.0429 348.78 86.0133C348.708 85.9836 348.643 85.9401 348.588 85.8853C348.533 85.8305 348.49 85.7654 348.46 85.6938C348.43 85.6222 348.415 85.5454 348.415 85.4679V5.78625C348.415 5.62971 348.477 5.47958 348.588 5.36889C348.699 5.2582 348.85 5.19601 349.007 5.19601C349.164 5.19601 349.314 5.2582 349.425 5.36889C349.536 5.47958 349.598 5.62971 349.598 5.78625V84.8777H427.681C427.838 84.8777 427.988 84.9399 428.099 85.0506C428.21 85.1612 428.273 85.3114 428.273 85.4679C428.273 85.6245 428.21 85.7746 428.099 85.8853C427.988 85.996 427.838 86.0582 427.681 86.0582Z" fill="#3F3D56"/>
<path d="M94.0543 162.198H0.591537C0.513849 162.198 0.436921 162.183 0.365143 162.154C0.293366 162.124 0.228145 162.08 0.173212 162.026C0.118278 161.971 0.0747066 161.906 0.0449863 161.834C0.0152659 161.762 -2.01866e-05 161.686 2.0007e-08 161.608V68.9413C2.0007e-08 68.7848 0.062322 68.6347 0.173257 68.524C0.284191 68.4133 0.434651 68.3511 0.591537 68.3511C0.748422 68.3511 0.898882 68.4133 1.00982 68.524C1.12075 68.6347 1.18307 68.7848 1.18307 68.9413V161.018H94.0543C94.2112 161.018 94.3617 161.08 94.4726 161.191C94.5836 161.302 94.6459 161.452 94.6459 161.608C94.6459 161.765 94.5836 161.915 94.4726 162.026C94.3617 162.136 94.2112 162.198 94.0543 162.198Z" fill="#3F3D56"/>
<path d="M376.157 78.6609H361.14C360.486 78.6602 359.858 78.4005 359.395 77.9387C358.932 77.4769 358.672 76.8508 358.671 76.1977V54.6581C358.672 54.005 358.932 53.3789 359.395 52.9171C359.858 52.4553 360.486 52.1955 361.14 52.1949H376.157C376.812 52.1957 377.439 52.4554 377.902 52.9172C378.365 53.379 378.625 54.0051 378.626 54.6581V76.1977C378.625 76.8507 378.365 77.4768 377.902 77.9386C377.439 78.4004 376.812 78.6601 376.157 78.6609ZM361.14 53.3754C360.799 53.3758 360.472 53.511 360.231 53.7515C359.99 53.992 359.855 54.318 359.854 54.6581V76.1977C359.855 76.5378 359.99 76.8639 360.231 77.1043C360.472 77.3448 360.799 77.4801 361.14 77.4805H376.157C376.498 77.4801 376.825 77.3448 377.066 77.1043C377.307 76.8638 377.442 76.5378 377.443 76.1977V54.6581C377.442 54.3181 377.307 53.992 377.066 53.7516C376.825 53.5111 376.498 53.3758 376.157 53.3754H361.14Z" fill="#3F3D56"/>
<path d="M406.911 78.6609H393.089C392.276 78.66 391.496 78.3373 390.922 77.7637C390.347 77.19 390.023 76.4123 390.023 75.6011V36.5868C390.023 35.7757 390.347 34.998 390.922 34.4244C391.496 33.8508 392.276 33.5282 393.089 33.5273H406.911C407.724 33.5282 408.503 33.8508 409.078 34.4244C409.653 34.998 409.976 35.7757 409.977 36.5868V75.6011C409.976 76.4123 409.653 77.19 409.078 77.7637C408.503 78.3373 407.724 78.66 406.911 78.6609ZM393.089 34.7078C392.59 34.7083 392.111 34.9064 391.758 35.2587C391.405 35.611 391.206 36.0886 391.206 36.5868V75.6011C391.206 76.0993 391.405 76.577 391.758 76.9294C392.111 77.2817 392.589 77.4799 393.089 77.4804H406.911C407.41 77.4799 407.889 77.2817 408.242 76.9294C408.595 76.577 408.794 76.0993 408.794 75.6011V36.5868C408.793 36.0886 408.595 35.611 408.242 35.2587C407.889 34.9064 407.41 34.7083 406.911 34.7078H393.089Z" fill="#3F3D56"/>
<path d="M374.01 56.5014H362.747V74.7632H374.01V56.5014Z" fill="#6C63FF"/>
<path d="M405.631 38.4273H394.368V73.7609H405.631V38.4273Z" fill="#6C63FF"/>
<path d="M368.527 45.9222C371.468 45.9222 373.851 43.5439 373.851 40.6101C373.851 37.6763 371.468 35.298 368.527 35.298C365.587 35.298 363.204 37.6763 363.204 40.6101C363.204 43.5439 365.587 45.9222 368.527 45.9222Z" fill="#6C63FF"/>
<path d="M399.879 25.8542C402.819 25.8542 405.203 23.4759 405.203 20.5421C405.203 17.6083 402.819 15.23 399.879 15.23C396.939 15.23 394.555 17.6083 394.555 20.5421C394.555 23.4759 396.939 25.8542 399.879 25.8542Z" fill="#6C63FF"/>
<path d="M209.458 268L205.658 257.54H207.458L210.558 266.32L213.618 257.54H215.338L211.578 268H209.458Z" fill="black"/>
</g>
<defs>
<clipPath id="clip0">
<rect width="464" height="433" fill="white"/>
</clipPath>
</defs>
</svg>
